<?xml version="1.0" encoding="utf-8"?>
<!-- Generator: Adobe Illustrator 21.0.0, SVG Export Plug-In . SVG Version: 6.00 Build 0)  -->
<svg version="1.1" id="LOGO" xmlns="http://www.w3.org/2000/svg" xmlns:xlink="http://www.w3.org/1999/xlink" x="0px" y="0px"
	 viewBox="0 0 1080 1080" style="enable-background:new 0 0 1080 1080;" xml:space="preserve">
<style type="text/css">
	.st0{fill:none;stroke:#FFFFFF;stroke-width:14;stroke-miterlimit:10;}
</style>
<title>Contiamo-logo_Outlines</title>
<path class="st0" d="M318.6,540c0-150.1,121.7-271.7,271.7-271.7c72.1-0.1,141.2,28.6,192.2,79.6l64-64
	c-67.9-68.1-160-106.3-256.2-106.2c-200.1,0-362.3,162.2-362.3,362.3L318.6,540z"/>
<path class="st0" d="M405.3,540c0-100,81.1-181.2,181.2-181.2c49,0,95.8,19.9,129.8,55.1l66.2-66.2c-50.9-51-120.1-79.7-192.2-79.6
	c-150.1,0-271.7,121.7-271.7,271.8H405.3z"/>
<path class="st0" d="M318.6,540h-90.6c-0.1,96.1,38.1,188.3,106.1,256.2l64-64.1C347.2,681.2,318.5,612.1,318.6,540z"/>
<path class="st0" d="M460.5,669.8c-35.3-34-55.2-80.9-55.2-129.8h-86.7c-0.1,72.1,28.5,141.2,79.6,192.2L460.5,669.8z"/>
<path class="st0" d="M782.2,732.4l-66.1-66.1c-69.3,71.5-183.6,73.3-255.1,4c-0.1-0.1-0.3-0.3-0.4-0.4l-62.3,62.3
	C504.2,838.2,676.1,838.3,782.2,732.4L782.2,732.4z"/>
<path class="st0" d="M590.4,811.7c-72.1,0.1-141.2-28.5-192.1-79.6l-64.1,64.1c141.4,141.4,370.6,141.5,512.1,0.3l-64-64.1
	C731.3,783.3,662.3,811.8,590.4,811.7z"/>
</svg>
